<?xml version="1.0" standalone="no"?>
<!DOCTYPE svg PUBLIC "-//W3C//DTD SVG 20010904//EN"
 "http://www.w3.org/TR/2001/REC-SVG-20010904/DTD/svg10.dtd">
<svg version="1.0" xmlns="http://www.w3.org/2000/svg"
 width="210.000000pt" height="140.000000pt" viewBox="0 0 210.000000 140.000000"
 preserveAspectRatio="xMidYMid meet">

<g transform="translate(0.000000,140.000000) scale(0.100000,-0.100000)"
fill="#000000" stroke="none">
<path d="M828 1073 c7 -3 16 -2 19 1 4 3 -2 6 -13 5 -11 0 -14 -3 -6 -6z"/>
<path d="M884 1071 c8 -12 -77 -22 -88 -10 -6 5 -24 9 -40 9 -29 -1 -29 -2
-11 -12 18 -11 14 -14 -35 -28 -40 -12 -60 -14 -75 -7 -19 10 -19 11 5 19 28
9 21 8 -145 -16 -55 -9 -139 -16 -187 -18 -49 -2 -88 -6 -88 -10 0 -20 180
-67 269 -69 42 -1 43 -2 16 -9 -16 -4 -55 -8 -85 -9 l-55 -2 38 -20 c43 -23
151 -48 212 -50 l40 -1 -40 -9 c-22 -6 -51 -7 -65 -4 -24 5 -24 5 -5 -10 37
-29 127 -49 225 -49 85 -1 100 2 145 26 68 37 97 47 172 58 126 17 234 -16
329 -102 30 -28 54 -46 54 -41 0 6 -9 18 -20 28 -11 10 -17 22 -14 27 3 4 -10
24 -28 42 -19 19 -46 52 -62 74 -28 40 -132 129 -141 120 -3 -2 18 -26 45 -53
28 -27 50 -52 50 -56 0 -3 -23 0 -52 7 -29 8 -60 14 -70 14 -17 0 -192 129
-185 136 2 2 32 -1 66 -7 35 -5 66 -8 68 -5 9 9 -73 26 -129 26 -31 0 -60 5
-63 10 -3 6 -17 10 -31 10 -14 0 -23 -4 -20 -9z m140 -111 l59 -44 -64 -12
c-35 -6 -85 -17 -110 -24 l-45 -13 -92 62 c-51 34 -92 65 -92 70 0 8 133 38
195 44 31 3 41 -3 149 -83z m50 -93 c-20 -11 -67 -5 -71 10 -5 15 47 21 69 8
15 -8 15 -11 2 -18z m90 27 c26 -10 18 -24 -13 -24 -16 0 -34 7 -41 15 -11 13
-8 15 13 15 14 0 32 -3 41 -6z m151 -44 c33 -16 74 -43 90 -61 22 -23 25 -29
9 -21 -11 6 -27 18 -34 27 -18 22 -61 44 -121 61 -27 8 -49 19 -49 25 0 14 31
4 105 -31z m-349 8 c4 -6 -1 -17 -11 -25 -23 -16 -27 -16 -51 1 -18 14 -18 15
6 25 34 13 47 13 56 -1z"/>
<path d="M688 1053 c7 -3 16 -2 19 1 4 3 -2 6 -13 5 -11 0 -14 -3 -6 -6z"/>
<path d="M1623 942 c15 -9 27 -20 27 -24 0 -5 -12 -8 -27 -8 -47 0 -6 -17 43
-18 44 -1 44 -1 29 22 -16 25 -55 46 -83 46 -12 0 -9 -5 11 -18z"/>
<path d="M1367 943 c-14 -4 -10 -13 28 -55 25 -28 60 -82 77 -118 l32 -68 20
31 c33 48 66 65 137 72 59 6 69 5 88 -14 11 -11 23 -16 26 -11 6 10 -33 50
-49 50 -6 0 -23 7 -38 14 -25 13 -28 13 -28 0 0 -24 -35 -12 -38 14 -2 12 -7
22 -12 22 -4 0 -33 -27 -64 -61 -36 -39 -56 -54 -56 -43 0 10 7 26 17 36 18
20 4 25 -15 6 -9 -9 -15 -9 -23 -1 -8 8 -4 15 13 27 l23 17 -29 -3 c-41 -4
-44 19 -4 31 33 11 33 11 -9 7 -49 -5 -68 10 -26 20 50 11 49 12 -7 14 -43 2
-50 4 -30 10 20 6 21 8 5 8 -11 0 -28 -2 -38 -5z"/>
<path d="M980 562 c0 -38 -1 -38 -32 -34 -35 5 -58 -16 -58 -52 0 -37 17 -51
65 -52 l45 -2 0 89 c0 53 -4 89 -10 89 -5 0 -10 -17 -10 -38z m-6 -68 c8 -22
-12 -56 -32 -52 -18 3 -27 30 -18 54 7 19 42 18 50 -2z"/>
<path d="M1447 593 c-4 -3 -7 -21 -7 -38 0 -29 -2 -32 -27 -27 -29 6 -53 -18
-53 -52 0 -37 17 -51 65 -52 l45 -2 0 89 c0 82 -5 100 -23 82z m-4 -103 c7
-26 -16 -55 -37 -47 -16 6 -22 47 -9 60 13 14 41 6 46 -13z"/>
<path d="M1037 584 c-8 -8 1 -24 14 -24 5 0 9 7 9 15 0 15 -12 20 -23 9z"/>
<path d="M1150 585 c0 -14 64 -155 70 -155 5 0 31 57 67 148 3 6 -1 12 -9 12
-7 0 -22 -22 -33 -50 -11 -27 -22 -50 -25 -50 -3 0 -16 23 -27 50 -12 28 -26
50 -32 50 -6 0 -11 -2 -11 -5z"/>
<path d="M1310 575 c0 -9 5 -15 11 -13 6 2 11 8 11 13 0 5 -5 11 -11 13 -6 2
-11 -4 -11 -13z"/>
<path d="M1100 551 c0 -11 -6 -22 -12 -25 -10 -5 -10 -7 0 -12 7 -3 12 -24 12
-51 0 -54 25 -56 26 -2 0 20 4 40 7 46 9 14 -9 63 -23 63 -5 0 -10 -9 -10 -19z"/>
<path d="M773 504 c-15 -24 -15 -29 -2 -53 16 -29 61 -40 84 -21 20 17 8 32
-14 18 -20 -12 -51 -5 -51 12 0 5 18 10 40 10 32 0 40 4 40 18 0 47 -69 59
-97 16z m72 -4 c4 -6 -7 -10 -25 -10 -18 0 -29 4 -25 10 3 6 15 10 25 10 10 0
22 -4 25 -10z"/>
<path d="M1040 475 c0 -30 5 -55 10 -55 6 0 10 25 10 55 0 30 -4 55 -10 55 -5
0 -10 -25 -10 -55z"/>
<path d="M1310 475 c0 -30 5 -55 10 -55 6 0 10 25 10 55 0 30 -4 55 -10 55 -5
0 -10 -25 -10 -55z"/>
<path d="M344 276 c-3 -7 -4 -33 -2 -57 l3 -44 43 -3 c29 -2 42 0 37 7 -3 6
-19 11 -36 11 -22 0 -29 5 -29 19 0 15 8 21 33 24 l32 4 -32 1 c-25 2 -33 7
-33 21 0 15 8 21 38 24 l37 4 -43 1 c-28 1 -44 -3 -48 -12z"/>
<path d="M1479 288 c-5 -14 -2 -111 3 -114 5 -3 8 22 8 55 0 34 -2 61 -5 61
-3 0 -5 -1 -6 -2z"/>
<path d="M1512 230 c0 -53 2 -59 8 -32 9 37 26 60 36 49 4 -4 11 -24 15 -44
l7 -38 -1 45 c-2 42 -4 45 -29 43 -20 -1 -28 4 -31 20 -2 12 -4 -7 -5 -43z"/>
<path d="M798 269 c-7 -20 6 -92 17 -96 8 -2 11 41 6 100 -1 11 -19 8 -23 -4z"/>
<path d="M451 210 c2 -34 3 -38 6 -15 9 59 43 70 43 14 0 -16 5 -29 10 -29 15
0 12 56 -3 68 -7 6 -23 10 -35 9 -19 -1 -22 -7 -21 -47z"/>
<path d="M540 239 c-17 -31 2 -72 32 -67 12 2 24 10 26 18 5 13 3 13 -11 2
-21 -18 -37 -7 -37 23 0 30 16 41 37 23 14 -11 16 -11 11 2 -8 24 -45 24 -58
-1z"/>
<path d="M633 252 c-24 -15 -19 -69 7 -77 26 -8 50 11 50 39 0 36 -29 56 -57
38z m41 -25 c8 -12 7 -21 -6 -33 -20 -20 -38 -11 -38 20 0 39 23 46 44 13z"/>
<path d="M711 210 c2 -34 3 -38 6 -15 9 59 43 70 43 14 0 -16 5 -29 10 -29 12
0 13 50 2 68 -5 6 -20 11 -35 10 -25 -2 -27 -5 -26 -48z"/>
<path d="M852 210 c1 -40 2 -41 5 -11 3 19 12 41 21 47 15 12 15 13 -5 11 -21
-1 -23 -6 -21 -47z"/>
<path d="M914 252 c-17 -11 -22 -35 -13 -59 10 -27 41 -30 60 -6 13 15 12 15
-9 4 -23 -12 -42 -8 -42 10 0 5 14 9 30 9 31 0 39 17 18 38 -14 14 -28 15 -44
4z m36 -17 c11 -13 8 -15 -14 -15 -25 0 -33 10 -19 23 10 11 19 8 33 -8z"/>
<path d="M1042 248 c-7 -7 -12 -21 -12 -33 0 -46 53 -62 71 -21 21 45 -26 87
-59 54z m43 -34 c0 -32 -21 -39 -38 -12 -8 12 -7 21 3 32 19 24 35 14 35 -20z"/>
<path d="M1124 246 c-8 -21 3 -36 27 -36 10 0 19 -7 19 -15 0 -18 -21 -20 -39
-2 -11 10 -13 9 -9 -3 6 -20 35 -25 53 -10 23 19 18 30 -16 42 -21 7 -27 14
-20 21 7 7 15 6 27 -4 15 -12 17 -12 12 1 -6 21 -47 25 -54 6z"/>
<path d="M1251 211 c2 -34 3 -38 6 -16 10 64 42 69 45 7 1 -36 1 -36 5 -5 5
36 30 64 37 42 3 -8 7 -27 9 -44 3 -16 4 -10 3 15 l-1 45 -52 1 -53 1 1 -46z"/>
<path d="M1392 248 c-16 -16 -15 -53 3 -68 18 -15 47 -10 53 10 4 13 3 13 -11
2 -9 -8 -21 -11 -27 -7 -20 12 -10 25 20 25 33 0 35 3 20 31 -12 21 -40 25
-58 7z m46 -16 c2 -7 -6 -12 -17 -12 -21 0 -27 11 -14 24 9 9 26 2 31 -12z"/>
<path d="M1610 246 c-28 -34 11 -94 44 -67 21 17 21 67 0 75 -23 9 -30 8 -44
-8z m45 -31 c0 -33 -21 -41 -38 -14 -14 22 -1 51 20 47 13 -2 18 -13 18 -33z"/>
<path d="M1708 252 c-13 -2 -18 -13 -18 -38 0 -19 5 -34 10 -34 6 0 10 13 10
29 0 16 6 31 13 34 17 6 5 14 -15 9z"/>
<path d="M1748 234 c-9 -18 -9 -30 -1 -42 13 -21 55 -22 61 -2 4 13 3 13 -11
2 -9 -8 -21 -11 -27 -7 -20 12 -10 25 20 25 33 0 35 3 20 31 -15 27 -48 24
-62 -7z m50 -2 c2 -7 -6 -12 -17 -12 -21 0 -27 11 -14 24 9 9 26 2 31 -12z"/>
<path d="M1841 246 c-12 -15 -2 -27 33 -40 15 -5 17 -9 7 -19 -9 -9 -16 -9
-31 1 -12 7 -20 8 -20 2 0 -12 45 -24 59 -15 19 11 12 35 -14 45 -30 11 -34
35 -5 27 11 -3 18 -1 14 4 -8 13 -30 11 -43 -5z"/>
</g>
</svg>
